<svg width="395" height="395" viewBox="0 0 395 395" fill="none" xmlns="http://www.w3.org/2000/svg">
<rect width="395" height="395" fill="white"/>
<path d="M322.312 115.719H299.602L322.922 92.3982C324.256 91.064 325.315 89.48 326.037 87.7367C326.759 85.9934 327.131 84.125 327.131 82.238C327.131 80.3511 326.759 78.4827 326.037 76.7394C325.315 74.9961 324.256 73.4121 322.922 72.0779C321.588 70.7436 320.004 69.6853 318.261 68.9632C316.517 68.2411 314.649 67.8694 312.762 67.8694C310.875 67.8694 309.007 68.2411 307.263 68.9632C305.52 69.6853 303.936 70.7436 302.602 72.0779L279.281 95.3984V72.6875C279.281 68.8833 277.77 65.2349 275.08 62.5449C272.39 59.855 268.742 58.3438 264.937 58.3438C261.133 58.3438 257.485 59.855 254.795 62.5449C252.105 65.2349 250.594 68.8833 250.594 72.6875V103.766C235.558 96.9855 218.815 94.9402 202.589 97.9014C186.363 100.863 171.422 108.69 159.75 120.345C111.28 167.93 75.0979 279.477 71.0339 292.35C69.3903 295.99 68.685 299.984 68.9824 303.967C69.2797 307.95 70.5703 311.795 72.7362 315.151C74.9021 318.507 77.8743 321.267 81.3813 323.178C84.8883 325.09 88.8184 326.092 92.8125 326.094C96.209 326.088 99.5658 325.363 102.662 323.966C111.794 321.073 170.544 302.044 220.89 273.978L221.536 273.62C241.976 262.18 260.981 249.247 274.655 235.37C286.334 223.688 294.177 208.726 297.139 192.475C300.101 176.224 298.041 159.457 291.234 144.406H322.312C326.117 144.406 329.765 142.895 332.455 140.205C335.145 137.515 336.656 133.867 336.656 130.062C336.656 126.258 335.145 122.61 332.455 119.92C329.765 117.23 326.117 115.719 322.312 115.719ZM254.311 215.073L254.204 215.181C244.51 225.078 231.361 234.545 216.754 243.294L189.011 215.551C186.317 212.857 182.662 211.343 178.851 211.343C175.04 211.343 171.386 212.857 168.691 215.551C165.996 218.246 164.482 221.901 164.482 225.711C164.482 229.522 165.996 233.177 168.691 235.872L190.47 257.65C154.263 275.783 116.205 289.23 100.51 294.49C108.603 270.32 136.119 193.127 170.245 151.363L206.941 188.059C209.636 190.754 213.29 192.268 217.101 192.268C220.912 192.268 224.567 190.754 227.261 188.059C229.956 185.364 231.47 181.71 231.47 177.899C231.47 174.088 229.956 170.433 227.261 167.739L191.474 131.951C202.559 125.747 215.516 123.764 227.95 126.371C240.383 128.977 251.453 135.996 259.114 146.13C266.775 156.264 270.509 168.828 269.626 181.501C268.743 194.174 263.303 206.099 254.311 215.073Z" fill="#44972B"/>
</svg>
