<svg width="395" height="395" viewBox="0 0 395 395" fill="none" xmlns="http://www.w3.org/2000/svg">
<rect width="395" height="395" fill="#D9D9D9"/>
<path d="M201.581 268.336C242.929 268.336 276.522 236.622 277.952 197C276.522 157.378 242.929 125.664 201.581 125.664C160.238 125.664 126.635 157.378 125.225 197C126.63 236.622 160.233 268.336 201.581 268.336Z" fill="#E7E7E7"/>
<path d="M201.586 91.8125C143.494 91.8125 96.3936 138.908 96.3936 197C96.3936 255.087 143.498 302.188 201.586 302.188C259.673 302.188 306.773 255.087 306.773 197C306.773 138.908 259.673 91.8125 201.586 91.8125ZM201.581 273.5C159.329 273.5 125.076 240.409 125.076 199.577C125.076 198.707 125.196 197.861 125.224 197C125.196 196.139 125.076 195.288 125.076 194.423C125.076 153.591 159.334 120.5 201.581 120.5C243.833 120.5 278.081 153.591 278.081 194.423C278.081 195.288 277.981 196.139 277.957 197C277.985 197.861 278.081 198.707 278.081 199.577C278.076 240.409 243.833 273.5 201.581 273.5Z" fill="#E7E7E7"/>
<path d="M61.6436 79.4816C62.7911 74.9825 65.0622 79.429 65.0622 79.429C65.0622 79.429 65.8559 125.998 71.0197 126.505C76.1834 127.012 72.2054 78.5875 78.3158 77.66C83.996 76.7563 80.7543 127.275 85.9276 126.763C91.0818 126.218 91.952 79.6681 91.952 79.6681C91.952 79.6681 94.247 75.2263 95.3801 79.692C109.38 134.724 98.0528 157.22 98.0528 157.22C98.0528 157.22 96.1403 161.949 91.5982 161.973C91.1726 161.949 91.493 292.673 91.4643 310.249C91.4738 318.793 65.1674 318.53 65.1817 310.024C65.2009 292.448 65.7125 161.738 65.3013 161.748C60.7447 161.748 58.837 157.024 58.837 157.024C58.837 157.024 47.5533 134.542 61.6436 79.4816ZM310.933 77.4687C316.852 77.4544 341.409 95.1593 341.438 160.959C341.466 182.001 329.987 181.996 330.006 195.159C330.025 208.298 330.096 312.807 330.096 312.807C330.096 312.807 317.503 321.446 308.141 312.405L307.969 79.3382C307.978 79.343 307.945 77.4639 310.933 77.4687Z" fill="#E7E7E7"/>
</svg>
